<svg width="70" height="70" viewBox="0 0 70 70" fill="none" xmlns="http://www.w3.org/2000/svg">
<g filter="url(#filter0_d)">
<circle cx="35" cy="31" r="25" fill="#F23F4D"/>
</g>
<path d="M36.619 43C36.224 43 35.8594 42.7768 35.6813 42.4206L32.5719 36.2017C32.4011 35.8602 32.4305 35.4516 32.6473 35.1363L37.6666 28.3327L30.8621 33.351C30.5468 33.569 30.1382 33.5962 29.7967 33.4265L23.5789 30.3181C23.2059 30.1305 22.9786 29.7398 23.0016 29.3228C23.0236 28.9058 23.2928 28.5412 23.6847 28.3977L43.59 21.0641C43.9724 20.9247 44.403 21.0159 44.6932 21.3061C44.9824 21.5942 45.0766 22.0258 44.9352 22.4093L37.6017 42.3148C37.4571 42.7067 37.0935 42.9759 36.6766 42.9979C36.6577 42.999 36.6378 43 36.619 43Z" fill="white"/>
<defs>
<filter id="filter0_d" x="0" y="0" width="70" height="70" filterUnits="userSpaceOnUse" color-interpolation-filters="sRGB">
<feFlood flood-opacity="0" result="BackgroundImageFix"/>
<feColorMatrix in="SourceAlpha" type="matrix" values="0 0 0 0 0 0 0 0 0 0 0 0 0 0 0 0 0 0 127 0"/>
<feOffset dy="4"/>
<feGaussianBlur stdDeviation="5"/>
<feColorMatrix type="matrix" values="0 0 0 0 0 0 0 0 0 0 0 0 0 0 0 0 0 0 0.15 0"/>
<feBlend mode="normal" in2="BackgroundImageFix" result="effect1_dropShadow"/>
<feBlend mode="normal" in="SourceGraphic" in2="effect1_dropShadow" result="shape"/>
</filter>
</defs>
</svg>
