<svg width="14" height="14" viewBox="0 0 14 14" fill="none" xmlns="http://www.w3.org/2000/svg">
<path d="M7 0C3.1325 0 0 3.1325 0 7C0 10.8675 3.1325 14 7 14C10.8675 14 14 10.8675 14 7C14 3.1325 10.8675 0 7 0ZM7 12.6C3.913 12.6 1.4 10.087 1.4 7C1.4 3.913 3.913 1.4 7 1.4C10.087 1.4 12.6 3.913 12.6 7C12.6 10.087 10.087 12.6 7 12.6ZM5.656 6.2055C5.6945 5.978 5.7645 5.775 5.866 5.5965C5.9675 5.418 6.1075 5.2745 6.279 5.166C6.4435 5.0645 6.65 5.0085 6.9055 5.005C7.0735 5.0085 7.2275 5.0365 7.3605 5.096C7.504 5.159 7.623 5.243 7.7245 5.348C7.826 5.453 7.903 5.579 7.959 5.719C8.015 5.859 8.0465 6.0095 8.0535 6.167H9.3065C9.296 5.838 9.2295 5.537 9.114 5.264C8.9985 4.991 8.8305 4.7565 8.6205 4.557C8.4105 4.3575 8.1585 4.207 7.8645 4.0985C7.5705 3.99 7.245 3.934 6.888 3.934C6.433 3.934 6.0375 4.011 5.7015 4.1685C5.3655 4.326 5.0855 4.5395 4.8615 4.8125C4.6375 5.0855 4.4695 5.4005 4.361 5.761C4.2525 6.1215 4.2 6.503 4.2 6.9055V7.098C4.2 7.504 4.256 7.8855 4.3645 8.246C4.473 8.6065 4.641 8.9215 4.865 9.191C5.089 9.4605 5.369 9.674 5.7085 9.8315C6.048 9.989 6.4435 10.066 6.8985 10.066C7.2275 10.066 7.5355 10.0135 7.8225 9.905C8.1095 9.7965 8.3615 9.6495 8.5785 9.4605C8.7955 9.2715 8.9705 9.0545 9.0965 8.8025C9.2225 8.5505 9.296 8.2845 9.3065 7.9975H8.0535C8.0465 8.1445 8.0115 8.2775 7.9485 8.4035C7.8855 8.5295 7.8015 8.6345 7.6965 8.722C7.5915 8.8095 7.469 8.8795 7.329 8.9285C7.196 8.974 7.056 8.9985 6.9055 8.9985C6.6535 8.9915 6.447 8.939 6.279 8.834C6.104 8.722 5.964 8.5785 5.8625 8.4C5.761 8.2215 5.691 8.0185 5.6525 7.7875C5.614 7.5565 5.6 7.3325 5.6 7.098V6.9055C5.6 6.6675 5.6175 6.433 5.656 6.2055Z" fill="white"/>
</svg>
