<svg width="18" height="18" viewBox="0 0 18 18" fill="none" xmlns="http://www.w3.org/2000/svg">
<path d="M17.4375 1.6875H14.625V0.5625C14.625 0.251438 14.373 0 14.0625 0H12.375C12.0645 0 11.8125 0.251438 11.8125 0.5625V1.6875H6.1875V0.5625C6.1875 0.251438 5.9355 0 5.625 0H3.9375C3.627 0 3.375 0.251438 3.375 0.5625V1.6875H0.5625C0.252 1.6875 0 1.93894 0 2.25V17.4375C0 17.7486 0.252 18 0.5625 18H17.4375C17.748 18 18 17.7486 18 17.4375V2.25C18 1.93894 17.748 1.6875 17.4375 1.6875ZM11.8125 2.8125H14.625V3.9375H11.8125V2.8125ZM3.375 2.8125H6.1875V3.9375H3.375V2.8125ZM16.875 16.875H1.125V6.75H16.875V16.875Z" fill="white"/>
</svg>
