<svg width="70" height="70" viewBox="0 0 70 70" fill="none" xmlns="http://www.w3.org/2000/svg">
<g filter="url(#filter0_d)">
<circle cx="35" cy="31" r="25" fill="#F23F4D"/>
</g>
<path d="M34.7293 14C25.5048 14 18 21.5046 18 30.7292C18 39.9537 25.5048 47.4584 34.7293 47.4584C43.9537 47.4584 51.4585 39.9537 51.4585 30.7292C51.4585 21.5046 43.9536 14 34.7293 14ZM34.7293 42.611C28.167 42.611 22.8474 37.2915 22.8474 30.7292C22.8474 24.1669 28.167 18.8474 34.7293 18.8474C41.2913 18.8474 46.6111 24.1669 46.6111 30.7292C46.6111 37.2915 41.2912 42.611 34.7293 42.611Z" fill="white"/>
<path d="M34.7295 20.3856C29.0258 20.3856 24.3857 25.0257 24.3857 30.7292C24.3857 36.4327 29.0259 41.0728 34.7295 41.0728C40.433 41.0728 45.073 36.4327 45.073 30.7292C45.073 25.0257 40.4328 20.3856 34.7295 20.3856ZM43.7484 30.0697H38.7296C38.6271 29.4355 38.3766 28.8505 38.0152 28.3505L41.5583 24.8074C42.8021 26.2396 43.6029 28.0647 43.7484 30.0697ZM35.3784 21.7093C37.3823 21.8522 39.2067 22.65 40.6397 23.8902L37.0974 27.4327C36.5974 27.0715 36.0125 26.821 35.3784 26.7185V21.7093ZM34.0804 21.7093V26.7184C33.4462 26.8209 32.8613 27.0713 32.3612 27.4327L28.8188 23.8904C30.2519 22.6501 32.0765 21.8522 34.0804 21.7093ZM27.9001 24.8075L31.4433 28.3506C31.082 28.8505 30.8316 29.4355 30.729 30.0696H25.7102C25.8558 28.0647 26.6566 26.2398 27.9001 24.8075ZM25.7088 31.3677H30.7292C30.8316 32.0018 31.0821 32.5867 31.4435 33.0868L27.8905 36.6398C26.648 35.204 25.8496 33.3756 25.7088 31.3677ZM34.0804 39.7491C32.0711 39.6058 30.2424 38.8042 28.8075 37.5583L32.3612 34.0046C32.8613 34.3659 33.4462 34.6163 34.0804 34.7189V39.7491ZM34.0804 33.3836V33.3931C33.8002 33.325 33.5373 33.2143 33.2978 33.0678L33.304 33.0617C32.9294 32.8332 32.6147 32.5185 32.3862 32.1437L32.3802 32.1498C32.2337 31.9103 32.1231 31.6475 32.055 31.3674H32.0643C32.0137 31.159 31.984 30.9424 31.984 30.7184C31.984 30.4944 32.0138 30.2778 32.0643 30.0695H32.055C32.1231 29.7895 32.2336 29.5267 32.3802 29.2872L32.3862 29.2932C32.6147 28.9186 32.9295 28.6038 33.304 28.3755L33.2978 28.3693C33.5373 28.2228 33.8002 28.112 34.0804 28.0441V28.0535C34.2888 28.0029 34.5053 27.9731 34.7295 27.9731C34.9536 27.9731 35.1701 28.0029 35.3786 28.0535V28.0441C35.6587 28.1122 35.9215 28.2227 36.1608 28.3691L36.1546 28.3753C36.5294 28.6037 36.8441 28.9185 37.0726 29.2931L37.0786 29.2871C37.2252 29.5266 37.3359 29.7895 37.404 30.0696H37.3946C37.4452 30.2779 37.4749 30.4946 37.4749 30.7186C37.4749 30.9426 37.4451 31.1592 37.3946 31.3675H37.404C37.3359 31.6477 37.2253 31.9106 37.0786 32.1501L37.0726 32.144C36.8441 32.5186 36.5293 32.8333 36.1546 33.0618L36.1608 33.0678C35.9215 33.2143 35.6587 33.325 35.3786 33.3931V33.3836C35.1701 33.4342 34.9536 33.464 34.7295 33.464C34.5053 33.464 34.2888 33.4343 34.0804 33.3836ZM35.3784 39.7491V34.7189C36.0125 34.6163 36.5974 34.3659 37.0974 34.0047L40.651 37.5583C39.2163 38.8042 37.3875 39.6058 35.3784 39.7491ZM41.5682 36.6398L38.0153 33.0869C38.3767 32.5869 38.6271 32.0019 38.7298 31.3677H43.75C43.6091 33.3756 42.8108 35.204 41.5682 36.6398Z" fill="white"/>
<defs>
<filter id="filter0_d" x="0" y="0" width="70" height="70" filterUnits="userSpaceOnUse" color-interpolation-filters="sRGB">
<feFlood flood-opacity="0" result="BackgroundImageFix"/>
<feColorMatrix in="SourceAlpha" type="matrix" values="0 0 0 0 0 0 0 0 0 0 0 0 0 0 0 0 0 0 127 0"/>
<feOffset dy="4"/>
<feGaussianBlur stdDeviation="5"/>
<feColorMatrix type="matrix" values="0 0 0 0 0 0 0 0 0 0 0 0 0 0 0 0 0 0 0.15 0"/>
<feBlend mode="normal" in2="BackgroundImageFix" result="effect1_dropShadow"/>
<feBlend mode="normal" in="SourceGraphic" in2="effect1_dropShadow" result="shape"/>
</filter>
</defs>
</svg>
